<?xml version="1.0" encoding="utf-8"?>
<!-- Generator: Adobe Illustrator 19.0.0, SVG Export Plug-In . SVG Version: 6.00 Build 0)  -->
<svg version="1.1" xmlns="http://www.w3.org/2000/svg" xmlns:xlink="http://www.w3.org/1999/xlink" x="0px" y="0px"
	 viewBox="0 0 512 512" style="enable-background:new 0 0 512 512;" xml:space="preserve">
<style type="text/css">
	.st0{display:none;}
	.st1{display:inline;}
	.st2{fill:#F2F2F2;}
	.st3{fill:#F04E30;}
</style>
<g id="Layer_2" class="st0">
	<path id="XMLID_1_" class="st1" d="M480,512H32c-17.6,0-32-14.4-32-32V32C0,14.4,14.4,0,32,0h448c17.6,0,32,14.4,32,32v448
		C512,497.6,497.6,512,480,512z"/>
</g>
<g id="Layer_4">
	<path id="XMLID_400_" d="M466,512H46c-25.4,0-46-20.6-46-46V46C0,20.6,20.6,0,46,0h420c25.4,0,46,20.6,46,46v420
		C512,491.4,491.4,512,466,512z"/>
</g>
<g id="Layer_1" class="st0">
</g>
<g id="Layer_2_copy">
</g>
<g id="Layer_4_copy">
	<g id="XMLID_10_">
		<g id="XMLID_101_">
			<polygon id="XMLID_111_" class="st2" points="32.1,511.1 228.8,248.3 92.8,65.8 55.3,103.2 55.3,2.2 156.3,2.2 123.1,35.4 
				266.8,227.6 265.9,269.2 84.3,511.1 			"/>
		</g>
		<g id="XMLID_13_">
			<path id="XMLID_14_" class="st3" d="M470.6,511.1h-77h-23.4l16.5-17.1l15.7-15.7L256.6,281.6v-67.5L414.3,2.2h51.6l-183.4,246
				l150.1,199.8l20.9-20.9l17.1-17v24.1L470.6,511.1z M425.9,22.3h-1.5"/>
		</g>
	</g>
</g>
<g id="Layer_4_copy_2" class="st0">
	<path id="XMLID_11_" class="st1" d="M434.7,512H77.3C34.6,512,0,477.4,0,434.7V77.3C0,34.6,34.6,0,77.3,0h357.5
		C477.4,0,512,34.6,512,77.3v357.5C512,477.4,477.4,512,434.7,512z"/>
</g>
</svg>
